<?xml version="1.0" encoding="utf-8"?>
<!-- Generator: Adobe Illustrator 24.3.0, SVG Export Plug-In . SVG Version: 6.00 Build 0)  -->
<svg version="1.1" id="Layer_1" xmlns="http://www.w3.org/2000/svg" xmlns:xlink="http://www.w3.org/1999/xlink" x="0px" y="0px"
	 viewBox="0 0 216.5 63.6" style="enable-background:new 0 0 216.5 63.6;" xml:space="preserve">
<style type="text/css">
	.st0{fill:#333233;}
</style>
<g>
	<g>
		<g>
			<path class="st0" d="M36.3,38.8l-3.1,1.5c-0.1,0-0.1,0.1-0.2,0.1c-0.4,0-0.9-0.7-1-2l-2,1.1c-1.3,0.7-1.9,0.9-2.6,0.9
				c-1.3,0-1.9-0.8-1.9-1.7c0-1.1,0.8-1.6,2.7-2.3l3.8-1.4v-2.5c0-3-1-3.6-2.1-3.6c-1.6,0-2.3,1.5-2.4,2.5c-0.1,0.4-0.2,1-1,1
				c-0.5,0-0.9-0.3-0.9-0.8c0-1.4,3.1-3.3,5.2-3.3c1.5,0,2.5,1,2.5,3.3v5.3c0,1.4,0.3,2.1,1.1,2.1c0.4,0,0.9-0.2,1.7-0.5
				C36.3,38.4,36.5,38.7,36.3,38.8z M32,38L32,38v-2.7l-3.5,1.3c-0.9,0.3-1.2,0.8-1.2,1.4c0,0.8,0.5,1.3,1.3,1.3
				c0.4,0,0.8-0.1,1.1-0.3L32,38z"/>
			<path class="st0" d="M61,40.1c-0.7,0-1.7-0.1-2.7-0.1s-2,0.1-2.7,0.1c-0.1,0-0.1-0.4,0-0.4c1.7,0,2-0.3,2-2.1v-4.9
				c0-2.4-0.8-3.6-2.7-3.6c-1.3,0-2.6,0.8-3.7,2.1c0,0.2,0,0.4,0,0.5v5.9c0,1.7,0.3,2.1,2,2.1c0.1,0,0.1,0.4,0,0.4
				c-0.7,0-1.7-0.1-2.7-0.1c-1,0-2,0.1-2.7,0.1c-0.1,0-0.1-0.4,0-0.4c1.7,0,2-0.3,2-2.1v-4.9c0-2.4-0.8-3.6-2.7-3.6
				c-1.3,0-2.6,0.8-3.7,2.1v6.4c0,1.7,0.3,2.1,2,2.1c0.1,0,0.1,0.4,0,0.4c-0.7,0-1.7-0.1-2.7-0.1c-1,0-2,0.1-2.7,0.1
				c-0.1,0-0.1-0.4,0-0.4c1.7,0,2-0.3,2-2.1v-6c0-1.4-0.3-2-1.1-2c-0.4,0-1,0.2-1.7,0.5c-0.2,0.1-0.3-0.2-0.2-0.3l3.3-1.6
				c0.1,0,0.1,0,0.2,0c0.3,0,0.8,0.8,0.8,2.4v0.1c1.5-1.8,3-2.6,4.5-2.6c1.8,0,2.9,0.9,3.2,2.7c1.6-1.9,3-2.7,4.6-2.7
				c2.1,0,3.3,1.2,3.3,3.7v5.9c0,1.7,0.3,2.1,2,2.1C61.2,39.7,61.2,40.1,61,40.1z"/>
			<path class="st0" d="M74.1,29.3c0,0.4-0.3,0.8-0.9,0.8c-0.8,0-1-0.8-2-0.8c-0.5,0-0.9,0.2-2.3,1.9v6.5c0,1.7,0.4,2.1,3,2.1
				c0.1,0,0.1,0.4,0,0.4c-1,0-2.3-0.1-3.7-0.1c-1,0-2,0.1-2.7,0.1c-0.1,0-0.1-0.4,0-0.4c1.7,0,2-0.3,2-2.1v-6c0-1.4-0.3-2-1.1-2
				c-0.4,0-1,0.2-1.7,0.5c-0.2,0.1-0.3-0.2-0.2-0.3l3.3-1.6c0.1,0,0.1,0,0.2,0c0.3,0,0.8,0.8,0.8,2.4v0.2c1.7-2.1,2.5-2.6,3.3-2.6
				C73.1,28.2,74.1,28.7,74.1,29.3z"/>
			<path class="st0" d="M89.4,38.8l-3.1,1.5c-0.1,0-0.1,0.1-0.2,0.1c-0.4,0-0.9-0.7-1-2l-2,1.1c-1.3,0.7-1.9,0.9-2.6,0.9
				c-1.3,0-1.9-0.8-1.9-1.7c0-1.1,0.8-1.6,2.7-2.3l3.8-1.4v-2.5c0-3-1-3.6-2.1-3.6c-1.6,0-2.3,1.5-2.4,2.5c-0.1,0.4-0.2,1-1,1
				c-0.5,0-0.9-0.3-0.9-0.8c0-1.4,3.1-3.3,5.2-3.3c1.5,0,2.5,1,2.5,3.3v5.3c0,1.4,0.3,2.1,1.1,2.1c0.4,0,0.9-0.2,1.7-0.5
				C89.5,38.4,89.6,38.7,89.4,38.8z M85.1,38L85.1,38v-2.7l-3.5,1.3c-0.9,0.3-1.2,0.8-1.2,1.4c0,0.8,0.5,1.3,1.3,1.3
				c0.4,0,0.8-0.1,1.1-0.3L85.1,38z"/>
			<path class="st0" d="M116.7,40.1h-2.1c-0.5,0-1.5-0.3-3.3-1.7c-1,1.2-2.5,2-4.5,2c-2.8,0-4-1.6-4-3.3c0-1.9,1.5-3.2,3.1-4.3
				c-0.2-0.4-0.5-0.8-0.6-1.1c-0.4-0.9-0.6-1.7-0.6-2.4c0-1.8,1.4-3.4,3.5-3.4c1,0,2.5,0.4,2.5,2.2c0,2-1.9,3.1-3.7,4.3
				c1.1,1.8,2.9,3.5,4.8,5c0.6-1,1-2.1,1-3.3c0-0.8-0.2-1.4-1.5-1.4c-0.1,0-0.1-0.3,0-0.3l4.5,0c0.1,0,0.1,0.3,0,0.3
				c-1.6,0-1.8,0.4-2,1.2c-0.3,1.1-0.8,2.5-1.6,3.7c1.7,1.3,3.5,2.1,4.6,2.3C116.8,39.9,116.7,40.1,116.7,40.1z M111.1,38.2
				c-0.1-0.1-0.2-0.1-0.2-0.2c-1.8-1.4-3.6-3.2-4.8-5c-1.2,0.9-2.1,1.9-2.1,3.4c0,1.9,1.5,3.4,3.6,3.4
				C109,39.8,110.2,39.2,111.1,38.2z M106.8,32.1c1.5-1,2.8-2.1,2.8-3.7c0-1.4-0.8-2.1-2-2.1c-1.2,0-1.9,0.7-1.9,2.3
				C105.7,29.6,106.1,30.9,106.8,32.1z"/>
			<path class="st0" d="M138.9,38.8c-1.4,1.2-2.8,1.7-4.3,1.7c-3.7,0-5.6-2.8-5.6-5.8c0-3.7,2.8-6.5,6.4-6.5c2.1,0,3.3,1.1,3.3,3
				c0,0.5-0.1,0.7-0.4,0.7l-7.5,0c-0.1,0.5-0.2,1.1-0.2,1.7c0,3.4,1.7,6,4.8,6c1.1,0,2.2-0.3,3.1-1C138.8,38.4,139,38.6,138.9,38.8z
				 M131,31.5l5.9-0.2c0-1.7-1-2.6-2.5-2.6C132.7,28.8,131.5,29.8,131,31.5z"/>
			<path class="st0" d="M143.8,39.7c1.7,0,2-0.3,2-2.1V22c0-1.4-0.2-2.1-1-2.1c-0.4,0-0.8,0.2-1.4,0.5c-0.2,0.1-0.3-0.3-0.2-0.3
				l3.7-1.8c0.1,0,0.1,0,0.2,0c0.1,0,0.2,0.1,0.2,0.2v19.2c0,1.7,0.3,2.1,2,2.1c0.1,0,0.1,0.4,0,0.4c-0.7,0-1.7-0.1-2.7-0.1
				c-1,0-2,0.1-2.7,0.1C143.7,40.1,143.7,39.7,143.8,39.7z"/>
			<path class="st0" d="M175,40.1c-0.7,0-1.7-0.1-2.7-0.1c-1,0-2,0.1-2.7,0.1c-0.1,0-0.1-0.4,0-0.4c1.7,0,2-0.3,2-2.1v-4.9
				c0-2.4-0.8-3.6-2.7-3.6c-1.3,0-2.6,0.8-3.7,2.1c0,0.2,0,0.4,0,0.5v5.9c0,1.7,0.3,2.1,2,2.1c0.1,0,0.1,0.4,0,0.4
				c-0.7,0-1.7-0.1-2.7-0.1c-1,0-2,0.1-2.7,0.1c-0.1,0-0.1-0.4,0-0.4c1.7,0,2-0.3,2-2.1v-4.9c0-2.4-0.8-3.6-2.7-3.6
				c-1.3,0-2.6,0.8-3.7,2.1v6.4c0,1.7,0.3,2.1,2,2.1c0.1,0,0.1,0.4,0,0.4c-0.7,0-1.7-0.1-2.7-0.1c-1,0-2,0.1-2.7,0.1
				c-0.1,0-0.1-0.4,0-0.4c1.7,0,2-0.3,2-2.1v-6c0-1.4-0.3-2-1.1-2c-0.4,0-1,0.2-1.7,0.5c-0.2,0.1-0.3-0.2-0.2-0.3l3.3-1.6
				c0.1,0,0.1,0,0.2,0c0.3,0,0.8,0.8,0.8,2.4v0.1c1.5-1.8,3-2.6,4.5-2.6c1.8,0,2.9,0.9,3.2,2.7c1.6-1.9,3-2.7,4.6-2.7
				c2.1,0,3.3,1.2,3.3,3.7v5.9c0,1.7,0.3,2.1,2,2.1C175.1,39.7,175.1,40.1,175,40.1z"/>
			<path class="st0" d="M190.6,38.8l-3.1,1.5c-0.1,0-0.1,0.1-0.2,0.1c-0.4,0-0.9-0.7-1-2l-2,1.1c-1.3,0.7-1.9,0.9-2.6,0.9
				c-1.3,0-1.9-0.8-1.9-1.7c0-1.1,0.8-1.6,2.7-2.3l3.8-1.4v-2.5c0-3-1-3.6-2.1-3.6c-1.6,0-2.3,1.5-2.4,2.5c-0.1,0.4-0.2,1-1,1
				c-0.5,0-0.9-0.3-0.9-0.8c0-1.4,3.1-3.3,5.2-3.3c1.5,0,2.5,1,2.5,3.3v5.3c0,1.4,0.3,2.1,1.1,2.1c0.4,0,0.9-0.2,1.7-0.5
				C190.7,38.4,190.8,38.7,190.6,38.8z M186.3,38L186.3,38v-2.7l-3.5,1.3c-0.9,0.3-1.2,0.8-1.2,1.4c0,0.8,0.5,1.3,1.3,1.3
				c0.4,0,0.8-0.1,1.1-0.3L186.3,38z"/>
		</g>
		<path class="st0" d="M210.5,58.1H5.7V5.5h204.8V58.1z M6.5,57.3h203.1V6.4H6.5V57.3z"/>
	</g>
</g>
</svg>
